<?xml version="1.0" encoding="UTF-8" standalone="no"?>
<svg
   version="1.1"
   preserveAspectRatio="none"
   x="0px"
   y="0px"
   width="150"
   height="150.06531"
   viewBox="0 0 150 150.06531"
   id="svg22"
   sodipodi:docname="Icon.svg"
   inkscape:version="1.1-dev (216cb18, 2020-10-27)"
   xmlns:inkscape="http://www.inkscape.org/namespaces/inkscape"
   xmlns:sodipodi="http://sodipodi.sourceforge.net/DTD/sodipodi-0.dtd"
   xmlns="http://www.w3.org/2000/svg"
   xmlns:svg="http://www.w3.org/2000/svg">
  <sodipodi:namedview
     pagecolor="#ffffff"
     bordercolor="#666666"
     borderopacity="1"
     objecttolerance="10"
     gridtolerance="10"
     guidetolerance="10"
     inkscape:pageopacity="0"
     inkscape:pageshadow="2"
     inkscape:window-width="1600"
     inkscape:window-height="877"
     id="namedview24"
     showgrid="false"
     inkscape:zoom="1.500352"
     inkscape:cx="-4.3323167"
     inkscape:cy="104.30886"
     inkscape:window-x="-8"
     inkscape:window-y="-8"
     inkscape:window-maximized="1"
     inkscape:current-layer="svg22"
     fit-margin-top="0"
     fit-margin-left="0"
     fit-margin-right="0"
     fit-margin-bottom="0" />
  <defs
     id="defs5">
    <g
       id="Layer2_0_FILL">
      <path
         fill="#000000"
         stroke="none"
         d="m 104.95,54.85 q -6.2,0 -13.05,0 H 51.05 V 89.4 q 0.05,9.55 0,17.5 v 40.85 h 92.85 v -92.9 h -1.05 q -0.95,0 -1.8,0 h -36.1 m 3.15,3.55 q 1.95,0.45 3.8,1.05 7.6,2.5 14.65,8.55 1,0.9 2,1.85 0.4,0.4 0.75,0.85 0.95,1 1.85,2 9.9,11.65 9.9,27.35 0,17.65 -12.5,30.1 -7.4,7.5 -16.65,10.45 -3.65,1.2 -7.5,1.75 -2.95,0.35 -6,0.35 -0.6,0 -1.15,0 -1.7,-0.05 -3.3,-0.2 v -35.4 h -4.4 v 0.05 q -2.4,2.5 -5.25,4.15 -3.05,1.9 -6.55,2.1 h -0.2 q -5.4,-0.2 -8.45,-3.55 -3.2,-3.4 -3.3,-8.4 0,-3.35 1.35,-6.15 1.25,-2.8 3.8,-4.55 2.4,-1.65 5.95,-1.75 3.85,0.1 7.15,1.95 3.1,1.8 5.8,4.65 2.6,2.85 5.1,5.85 L 97.6,105 q 1,1.05 1.95,2.15 4.55,4.9 8.4,7.7 4.65,3.3 9.8,3.3 4.3,0 8.05,-2.15 3.7,-2.05 6.05,-5.95 2.35,-3.85 2.35,-9.2 -0.05,-7.3 -4.35,-11.75 -4.15,-4.55 -11.4,-4.7 -4.15,0.1 -7.5,1.7 -0.25,0.1 -0.55,0.3 -2.25,1.15 -4.3,2.8 -0.1,0.15 -0.25,0.25 V 58 q 1.15,0.2 2.25,0.4 m -10.85,-1 q 0.55,0 1.15,0 1.55,0 3.05,0.1 v 38 h 4.4 v -0.1 q 0.45,-0.45 0.9,-0.85 0.3,-0.3 0.65,-0.6 1.65,-1.45 3.55,-2.7 0.9,-0.7 2,-1.15 2.25,-1 4.9,-1.1 h 0.1 q 4.95,0.1 8,3.2 3.05,3.2 3.15,9.1 0,2.95 -1.25,5.75 -1.35,2.7 -3.8,4.5 -2.45,1.75 -6.05,1.85 -2.8,0 -5.5,-1.45 -2.65,-1.4 -5.5,-4.15 -2.9,-2.8 -6.5,-6.8 L 97.95,97.5 Q 95.1,94.05 92,91.1 q -3.15,-3 -6.65,-4.8 -3.55,-1.8 -7.7,-1.9 -4.95,0.1 -8.65,2.25 -3.85,2.2 -6.05,6 -2.15,3.8 -2.2,8.65 0.05,4.85 2.2,8.55 2.2,3.8 5.85,6 3.7,2.3 8.1,2.3 4.35,0 8.15,-1.9 2.3,-1.25 4.5,-3.05 v 28.65 q -8.05,-1.6 -14.85,-6.3 -2.65,-1.75 -5.05,-4 -0.7,-0.7 -1.4,-1.4 -6.95,-6.95 -9.95,-15.5 -0.15,-0.2 -0.2,-0.5 -2.3,-6.6 -2.3,-14.1 0,-2.05 0.2,-4.1 1.25,-15.1 12.25,-26.1 10.4,-10.4 24.45,-12.1 2.25,-0.3 4.55,-0.35 z"
         id="path2" />
    </g>
  </defs>
  <g
     transform="matrix(1.6155089,0,0,1.6153424,-82.471729,-88.601531)"
     id="g9"
     style="fill:#ffffff">
    <g
       id="use7"
       style="fill:#ffffff">
      <path
         fill="#000000"
         stroke="none"
         d="m 104.95,54.85 q -6.2,0 -13.05,0 H 51.05 V 89.4 q 0.05,9.55 0,17.5 v 40.85 h 92.85 v -92.9 h -1.05 q -0.95,0 -1.8,0 h -36.1 m 3.15,3.55 q 1.95,0.45 3.8,1.05 7.6,2.5 14.65,8.55 1,0.9 2,1.85 0.4,0.4 0.75,0.85 0.95,1 1.85,2 9.9,11.65 9.9,27.35 0,17.65 -12.5,30.1 -7.4,7.5 -16.65,10.45 -3.65,1.2 -7.5,1.75 -2.95,0.35 -6,0.35 -0.6,0 -1.15,0 -1.7,-0.05 -3.3,-0.2 v -35.4 h -4.4 v 0.05 q -2.4,2.5 -5.25,4.15 -3.05,1.9 -6.55,2.1 h -0.2 q -5.4,-0.2 -8.45,-3.55 -3.2,-3.4 -3.3,-8.4 0,-3.35 1.35,-6.15 1.25,-2.8 3.8,-4.55 2.4,-1.65 5.95,-1.75 3.85,0.1 7.15,1.95 3.1,1.8 5.8,4.65 2.6,2.85 5.1,5.85 L 97.6,105 q 1,1.05 1.95,2.15 4.55,4.9 8.4,7.7 4.65,3.3 9.8,3.3 4.3,0 8.05,-2.15 3.7,-2.05 6.05,-5.95 2.35,-3.85 2.35,-9.2 -0.05,-7.3 -4.35,-11.75 -4.15,-4.55 -11.4,-4.7 -4.15,0.1 -7.5,1.7 -0.25,0.1 -0.55,0.3 -2.25,1.15 -4.3,2.8 -0.1,0.15 -0.25,0.25 V 58 q 1.15,0.2 2.25,0.4 m -10.85,-1 q 0.55,0 1.15,0 1.55,0 3.05,0.1 v 38 h 4.4 v -0.1 q 0.45,-0.45 0.9,-0.85 0.3,-0.3 0.65,-0.6 1.65,-1.45 3.55,-2.7 0.9,-0.7 2,-1.15 2.25,-1 4.9,-1.1 h 0.1 q 4.95,0.1 8,3.2 3.05,3.2 3.15,9.1 0,2.95 -1.25,5.75 -1.35,2.7 -3.8,4.5 -2.45,1.75 -6.05,1.85 -2.8,0 -5.5,-1.45 -2.65,-1.4 -5.5,-4.15 -2.9,-2.8 -6.5,-6.8 L 97.95,97.5 Q 95.1,94.05 92,91.1 q -3.15,-3 -6.65,-4.8 -3.55,-1.8 -7.7,-1.9 -4.95,0.1 -8.65,2.25 -3.85,2.2 -6.05,6 -2.15,3.8 -2.2,8.65 0.05,4.85 2.2,8.55 2.2,3.8 5.85,6 3.7,2.3 8.1,2.3 4.35,0 8.15,-1.9 2.3,-1.25 4.5,-3.05 v 28.65 q -8.05,-1.6 -14.85,-6.3 -2.65,-1.75 -5.05,-4 -0.7,-0.7 -1.4,-1.4 -6.95,-6.95 -9.95,-15.5 -0.15,-0.2 -0.2,-0.5 -2.3,-6.6 -2.3,-14.1 0,-2.05 0.2,-4.1 1.25,-15.1 12.25,-26.1 10.4,-10.4 24.45,-12.1 2.25,-0.3 4.55,-0.35 z"
         id="path142"
         style="fill:#ffffff" />
    </g>
  </g>
</svg>
